<?xml version="1.0" encoding="UTF-8"?>
<svg xmlns="http://www.w3.org/2000/svg" version="1.1" width="1792" height="576" style="background-color:transparent;">
  <path d="M0 0 C591.36 0 1182.72 0 1792 0 C1792 190.08 1792 380.16 1792 576 C1200.64 576 609.28 576 0 576 C0 385.92 0 195.84 0 0 Z " fill="none" transform="translate(0,0)"/>
  <path d="M0 0 C10.89 0 21.78 0 33 0 C33 37.29 33 74.58 33 113 C38.65432424 108.25435538 38.65432424 108.25435538 43.4375 103.0625 C46.93761799 98.93395173 50.84399588 95.45434108 55 92 C53.46074497 88.63027953 51.97852245 87.1842498 49 85 C49 84.34 49 83.68 49 83 C50.12019531 82.79503906 51.24039063 82.59007812 52.39453125 82.37890625 C53.86720824 82.10688311 55.33986336 81.83474151 56.8125 81.5625 C57.91948242 81.36043945 57.91948242 81.36043945 59.04882812 81.15429688 C62.11315076 80.58580263 65.03928953 79.98690349 68 79 C69.74647773 78.79976688 71.4974336 78.63707223 73.25 78.5 C77.53384668 78.14159052 81.75316645 77.66061855 86 77 C86.37851209 82.93002267 85.10575375 87.47239641 83 93 C82.34 93 81.68 93 81 93 C79.68 98.94 78.36 104.88 77 111 C73 110 73 110 71 107 C66.68918975 107.47118159 64.75119232 110.01030188 61.875 113.0625 C60.2861641 114.74327151 58.66853704 116.39832072 57 118 C56.34 118 55.68 118 55 118 C55 118.66 55 119.32 55 120 C54.34 120 53.68 120 53 120 C53 120.66 53 121.32 53 122 C52.34 122 51.68 122 51 122 C51 122.66 51 123.32 51 124 C49.54882813 125.42773437 49.54882813 125.42773437 47.53125 127.09375 C42.93791178 130.99970486 38.72259253 135.20049322 34.5 139.5 C29.67845716 144.40936693 24.81944998 149.14286617 19.54882812 153.57226562 C17.88299115 154.93857667 17.88299115 154.93857667 17 157 C16.34 157 15.68 157 15 157 C15 157.66 15 158.32 15 159 C14.34 159 13.68 159 13 159 C13 159.66 13 160.32 13 161 C11.58398438 162.39477539 11.58398438 162.39477539 9.59375 164.03515625 C4.63418911 168.25231373 0.07671635 172.81233307 -4.5 177.4375 C-5.73363281 178.67790039 -5.73363281 178.67790039 -6.9921875 179.94335938 C-8.99712113 181.95994959 -10.99966253 183.97885236 -13 186 C-16.79593363 184.24032221 -19.10046685 182.03926969 -22 179 C-22.8971875 178.1028125 -23.794375 177.205625 -24.71875 176.28125 C-27.47916667 173.52083333 -30.23958333 170.76041667 -33 168 C-33.82886719 167.17242187 -34.65773438 166.34484375 -35.51171875 165.4921875 C-37.21742303 163.7838055 -38.91768107 162.06997345 -40.61328125 160.3515625 C-45.25769117 155.66010356 -49.93816961 151.10539529 -54.9609375 146.81640625 C-59.16165408 143.07438861 -63.05268048 139.00527364 -67 135 C-70.36432312 131.61288335 -70.36432312 131.61288335 -73.8125 128.3125 C-75 127 -75 127 -75 125 C-82.19117754 130.54747981 -88.64400148 136.50319694 -95.00073242 142.96948242 C-98.62851186 146.6534676 -102.33017005 150.15230966 -106.27734375 153.49609375 C-108.10430507 155.09105998 -109.80059287 156.77017842 -111.5 158.5 C-113.75797943 160.79326036 -116.05996504 162.96428028 -118.5 165.0625 C-122.65805912 168.64872388 -126.67404661 172.37888375 -130.6875 176.125 C-131.32945312 176.72320557 -131.97140625 177.32141113 -132.6328125 177.93774414 C-135.42618171 180.55072035 -138.18152956 183.17145762 -140.83203125 185.9296875 C-143 188 -143 188 -145 188 C-143.32774297 184.23742169 -140.97793589 181.14941529 -138.5 177.875 C-138.09652344 177.33746094 -137.69304687 176.79992187 -137.27734375 176.24609375 C-135.60868567 174.03773767 -133.95966381 171.95966381 -132 170 C-131.7820973 167.04910791 -131.68855022 164.18935063 -131.68115234 161.23583984 C-131.67110672 160.32846573 -131.6610611 159.42109161 -131.65071106 158.48622131 C-131.61974419 155.47780001 -131.60280652 152.46946822 -131.5859375 149.4609375 C-131.56723671 147.37870506 -131.54766413 145.29648028 -131.5272522 143.21426392 C-131.47580996 137.72668973 -131.43624908 132.23909095 -131.39910889 126.75140381 C-131.35914487 121.15451918 -131.30801795 115.55773797 -131.2578125 109.9609375 C-131.16091005 98.97402356 -131.07758248 87.98706737 -131 77 C-119.78 77 -108.56 77 -97 77 C-96.67 91.85 -96.34 106.7 -96 122 C-94.68 120.02 -93.36 118.04 -92 116 C-91.14712654 115.26132942 -91.14712654 115.26132942 -90.27702332 114.50773621 C-88.26106095 112.12756083 -88.59820691 109.94033245 -88.56762695 106.8762207 C-88.54783279 105.61513992 -88.52803864 104.35405914 -88.50764465 103.05476379 C-88.50087488 101.67843779 -88.49442802 100.30211017 -88.48828125 98.92578125 C-88.47143621 97.51757739 -88.4532862 96.10938859 -88.43388367 94.70121765 C-88.38635785 90.99739282 -88.35656556 87.293629 -88.33044434 83.58959961 C-88.30065158 79.80896027 -88.25427868 76.02852704 -88.20898438 72.24804688 C-88.12135332 64.83201413 -88.0614333 57.41648168 -88 50 C-76.45 50 -64.9 50 -53 50 C-53.020625 55.0325 -53.04125 60.065 -53.0625 65.25 C-53.05776835 68.44936131 -53.05068092 71.64837348 -53.03515625 74.84765625 C-53.01076797 79.91945209 -52.99482996 84.99023772 -53.03076172 90.06201172 C-53.05920408 94.15397863 -53.04845679 98.24418209 -53.01119995 102.33605957 C-53.00378683 103.89245245 -53.01019675 105.44897802 -53.03103638 107.00524902 C-53.05795717 109.19685531 -53.03450315 111.38283113 -53 113.57421875 C-53 114.81776123 -53 116.06130371 -53 117.3425293 C-51.94955802 122.3720014 -51.94955802 122.3720014 -44 129 C-43.67 95.01 -43.34 61.02 -43 26 C-32.11 26 -21.22 26 -10 26 C-9.67 68.57 -9.34 111.14 -9 155 C-7.35 153.02 -5.7 151.04 -4 149 C-3.01 148.34 -2.02 147.68 -1 147 C-0.53526231 144.34620756 -0.53526231 144.34620756 -0.60127258 141.17880249 C-0.58873444 139.93917252 -0.57619629 138.69954254 -0.5632782 137.42234802 C-0.56445238 136.04116795 -0.56591158 134.6599881 -0.56762695 133.27880859 C-0.55861481 131.8302476 -0.54828895 130.38169426 -0.53674316 128.93315125 C-0.5090823 124.99329275 -0.49987642 121.05357858 -0.49388909 117.11363554 C-0.48452893 112.99892639 -0.45832758 108.88432605 -0.43388367 104.76968384 C-0.3901498 96.97471753 -0.36164524 89.17977226 -0.33856028 81.38472044 C-0.31154541 72.51174547 -0.26763171 63.63887959 -0.22227156 54.76598239 C-0.12932664 36.51069811 -0.05992223 18.25542461 0 0 Z " fill="#8EEE2F" transform="translate(458,151)"/>
  <path d="M0 0 C6.27 0 12.54 0 19 0 C19.82013438 28.70470343 9.73497891 58.73600471 -10 80 C-10.70511719 80.83273437 -11.41023437 81.66546875 -12.13671875 82.5234375 C-32.2217224 105.96195163 -63.04787217 120.78679606 -93.78125 123.22021484 C-114.12549128 124.19857506 -135.27197431 122.45705814 -154 114 C-154.99 113.01 -154.99 113.01 -156 112 C-157.60909435 111.315279 -159.21891115 110.63221348 -160.83203125 109.95703125 C-175.92459263 103.2945492 -189.85104818 92.39305442 -200.45703125 79.796875 C-201.93863966 77.96165461 -201.93863966 77.96165461 -203.76171875 76.578125 C-205 75 -205 75 -204.90771484 72.75830078 C-203.6964007 69.07744354 -201.43651774 66.91849389 -198.71484375 64.2890625 C-198.18033096 63.75783783 -197.64581818 63.22661316 -197.09510803 62.67929077 C-195.38506166 60.98495543 -193.66138564 59.30523992 -191.9375 57.625 C-190.80447528 56.50347561 -189.67230475 55.38108758 -188.54101562 54.2578125 C-187.43305091 53.1632934 -186.32434883 52.06952012 -185.21484375 50.9765625 C-184.71242661 50.48153229 -184.21000946 49.98650208 -183.69236755 49.47647095 C-180.90963562 46.76564955 -178.06130568 44.17047998 -175.11645508 41.63623047 C-170.82846266 37.91311431 -166.8751879 33.91652449 -162.921875 29.84375 C-161.41725798 28.31191897 -159.91203233 26.78068555 -158.40625 25.25 C-156.06098836 22.86123435 -153.7198482 20.46892544 -151.38867188 18.06640625 C-149.11933814 15.73082841 -146.83470955 13.41118848 -144.546875 11.09375 C-143.84890808 10.3668396 -143.15094116 9.6399292 -142.43182373 8.89099121 C-141.77724182 8.23280396 -141.12265991 7.5746167 -140.44824219 6.89648438 C-139.87724792 6.31137085 -139.30625366 5.72625732 -138.71795654 5.12341309 C-137 4 -137 4 -135.09698486 4.00646973 C-132.07604273 5.43776163 -130.27338115 7.56237563 -128 10 C-127.12506393 10.87493607 -126.25012787 11.74987213 -125.34867859 12.65132141 C-108.23245239 29.76754761 -91.1162262 46.8837738 -74 64 C-71.21860866 62.65940965 -69.19668085 61.43340653 -67.046875 59.20703125 C-66.50933594 58.65853516 -65.97179687 58.11003906 -65.41796875 57.54492188 C-64.86753906 56.97322266 -64.31710937 56.40152344 -63.75 55.8125 C-60.34427867 52.29599014 -56.92213847 48.88654411 -53.203125 45.69921875 C-48.20985066 41.39093151 -43.62571196 36.69579851 -39 32 C-33.76879354 26.68953284 -28.53130345 21.49707488 -22.87109375 16.64404297 C-19.77453347 13.92323962 -16.89154639 10.9978577 -14 8.0625 C-13.41605469 7.47404297 -12.83210937 6.88558594 -12.23046875 6.27929688 C-10.81795195 4.85520207 -9.4086219 3.4279475 -8 2 C-7.01 2.495 -7.01 2.495 -6 3 C-6.46148437 3.48726563 -6.92296875 3.97453125 -7.3984375 4.4765625 C-12.0707519 9.55516511 -16.13363477 14.85855954 -20.08007812 20.49926758 C-23.0460257 24.71878792 -26.15179584 28.78695317 -29.375 32.8125 C-33.91218017 38.50157358 -38.14430346 44.36120933 -42.3059082 50.32910156 C-46.13473566 55.80920681 -50.0755598 61.19657312 -54.0625 66.5625 C-60.25165274 74.90257803 -66.18481932 83.39590613 -72 92 C-75.69117034 90.45343452 -78.02252134 88.21361737 -80.82519531 85.38598633 C-81.29085403 84.91901337 -81.75651276 84.45204041 -82.23628235 83.97091675 C-83.77154975 82.42917069 -85.29971089 80.88056893 -86.828125 79.33203125 C-87.90132203 78.25255666 -88.97504061 77.17360037 -90.04925537 76.09513855 C-92.87807027 73.25302657 -95.70127474 70.40541203 -98.52288818 67.55615234 C-103.02297351 63.01296976 -107.52964243 58.47634588 -112.03981781 53.94318199 C-113.60414669 52.36874526 -115.16494682 50.79087469 -116.72540283 49.21260071 C-121.50055089 44.39904262 -126.29322707 39.7155359 -131.55169678 35.42582703 C-133 34 -133 34 -134 31 C-139.34417101 33.67734681 -143.12180914 37.88764836 -147.2578125 42.09765625 C-148.04268036 42.88772568 -148.82754822 43.6777951 -149.63619995 44.49180603 C-152.13727407 47.01065809 -154.63154685 49.53610537 -157.125 52.0625 C-159.62645795 54.59158112 -162.12936149 57.11918778 -164.63522339 59.64390564 C-166.19278609 61.21371929 -167.74766779 62.78619848 -169.29959106 64.36158752 C-170.00397308 65.07250046 -170.7083551 65.78341339 -171.43408203 66.51586914 C-172.05187531 67.14191544 -172.66966858 67.76796173 -173.30618286 68.41297913 C-175 70 -175 70 -178 72 C-176.43922747 76.31746167 -173.13486223 78.65848847 -169.625 81.375 C-168.69856689 82.09973511 -168.69856689 82.09973511 -167.75341797 82.83911133 C-162.19060473 87.07416027 -156.42246513 90.21222667 -150 93 C-150 93.66 -150 94.32 -150 95 C-149.2265625 95.18175781 -148.453125 95.36351562 -147.65625 95.55078125 C-138.12007889 97.85220868 -138.12007889 97.85220868 -134.0625 99.5625 C-113.22583953 107.52822533 -84.47133727 104.81408466 -64.3125 96.0625 C-53.96047432 91.24147542 -44.6494285 85.47060655 -36 78 C-35.20650146 77.36723145 -35.20650146 77.36723145 -34.39697266 76.72167969 C-29.60174801 72.818992 -25.94070566 68.44120357 -22.25 63.5 C-21.68667969 62.76652344 -21.12335938 62.03304687 -20.54296875 61.27734375 C-17.55584034 57.32981471 -15.0301464 53.51779057 -13 49 C-12.34 49 -11.68 49 -11 49 C-10.90589844 48.360625 -10.81179688 47.72125 -10.71484375 47.0625 C-9.93236669 43.71024855 -8.77490642 40.66577412 -7.52392578 37.46508789 C-4.22901732 29.01696936 -1.79833443 21.08692429 -1 12 C-0.83757812 10.28683594 -0.83757812 10.28683594 -0.671875 8.5390625 C-0.4199575 5.69504651 -0.2058593 2.84772037 0 0 Z " fill="#05BFEE" transform="translate(517,289)"/>
  <path d="M0 0 C33.33 0 66.66 0 101 0 C101 9.24 101 18.48 101 28 C78.89 28 56.78 28 34 28 C34 37.57 34 47.14 34 57 C53.47 57 72.94 57 93 57 C93 65.58 93 74.16 93 83 C73.2 83 53.4 83 33 83 C33 100.82 33 118.64 33 137 C22.11 137 11.22 137 0 137 C0 91.79 0 46.58 0 0 Z " fill="#F6F6F6" transform="translate(625,206)"/>
  <path d="M0 0 C0.72123047 -0.01224609 1.44246094 -0.02449219 2.18554688 -0.03710938 C7.33145477 -0.05095487 11.7388815 0.77281019 16.6875 2.1875 C16.6875 2.8475 16.6875 3.5075 16.6875 4.1875 C17.5125 4.249375 18.3375 4.31125 19.1875 4.375 C28.63279616 6.56765804 38.21565257 14.89870644 43.5625 22.86328125 C49.53422846 35.20070636 50.6875 47.53263804 50.6875 61.1875 C26.5975 61.1875 2.5075 61.1875 -22.3125 61.1875 C-18.92160719 72.57968208 -18.92160719 72.57968208 -10.63671875 79.8671875 C-6.54435107 81.49259323 -3.28181553 81.52819015 1.0625 81.375 C1.79855469 81.36146484 2.53460937 81.34792969 3.29296875 81.33398438 C5.09146743 81.29894869 6.88958422 81.24515288 8.6875 81.1875 C8.6875 80.5275 8.6875 79.8675 8.6875 79.1875 C10.358125 78.81625 10.358125 78.81625 12.0625 78.4375 C15.70785712 77.58226016 15.70785712 77.58226016 17.0625 75.1875 C17.26875 74.5275 17.475 73.8675 17.6875 73.1875 C18.0175 72.5275 18.3475 71.8675 18.6875 71.1875 C28.2575 71.1875 37.8275 71.1875 47.6875 71.1875 C46.18996505 81.67024464 40.61792501 89.39370988 32.25 95.75 C27.303102 99.02266929 22.35769464 101.45544697 16.6875 103.1875 C15.96820312 103.41179687 15.24890625 103.63609375 14.5078125 103.8671875 C0.53701851 107.39614238 -15.39586013 106.44467758 -28.1640625 99.67578125 C-28.87304688 99.18464844 -29.58203125 98.69351563 -30.3125 98.1875 C-30.3125 97.5275 -30.3125 96.8675 -30.3125 96.1875 C-31.04082031 95.95933594 -31.76914062 95.73117187 -32.51953125 95.49609375 C-35.87819156 93.9224557 -37.5813597 92.04642452 -40 89.25 C-40.76699219 88.37472656 -41.53398438 87.49945313 -42.32421875 86.59765625 C-46.3125 81.76313851 -46.3125 81.76313851 -46.3125 78.1875 C-46.9725 78.1875 -47.6325 78.1875 -48.3125 78.1875 C-51.67880965 69.51624703 -52.72034939 61.60894111 -52.75 52.375 C-52.75966797 51.40941162 -52.76933594 50.44382324 -52.77929688 49.44897461 C-52.7059092 43.16407535 -51.64600006 38.00963136 -49.3125 32.1875 C-49.00828125 31.34058594 -48.7040625 30.49367188 -48.390625 29.62109375 C-45.98110665 23.81324528 -42.71752894 19.63657923 -38.3125 15.1875 C-37.68859375 14.50558594 -37.0646875 13.82367188 -36.421875 13.12109375 C-26.97393318 3.61906066 -13.08347302 0.01150701 0 0 Z " fill="#F9F9F9" transform="translate(1046.3125,240.8125)"/>
  <path d="M0 0 C0 0.66 0 1.32 0 2 C0.72445313 2.0928125 1.44890625 2.185625 2.1953125 2.28125 C10.4832505 4.4051784 17.72087111 12.88267338 22 20 C27.97245656 32.64381761 29 42.80611379 29 57 C4.91 57 -19.18 57 -44 57 C-43.34 60.63 -42.68 64.26 -42 68 C-41.34 68 -40.68 68 -40 68 C-39.2575 68.928125 -38.515 69.85625 -37.75 70.8125 C-35.09217433 74.04313293 -33.08864438 75.68579288 -29 77 C-22.49669534 77.52258698 -15.96794399 77.91475615 -10 75 C-8.99864679 73.65066743 -8.02048729 72.28398999 -7.05859375 70.90625 C-4.65390139 67.97799263 -3.49376633 67.09841441 0.27294922 66.34765625 C4.18022625 66.21350082 8.03700429 66.30004713 11.9375 66.5 C13.30262979 66.54018424 14.66787353 66.57667641 16.03320312 66.609375 C19.35839304 66.7033733 22.67771956 66.83466496 26 67 C25.39051312 71.00123509 24.71929193 74.04617898 22.6875 77.5625 C22.27886719 78.28566406 21.87023438 79.00882812 21.44921875 79.75390625 C14.2345502 90.93567018 3.24075946 97.75649532 -9.62109375 100.57421875 C-21.80713316 102.10980059 -35.9282895 103.06372409 -47 97 C-47 96.34 -47 95.68 -47 95 C-47.9075 94.71125 -48.815 94.4225 -49.75 94.125 C-60.52022946 90.39684365 -65.04619801 81.78714679 -70 72 C-70.598125 70.9275 -71.19625 69.855 -71.8125 68.75 C-77.05467108 56.6102354 -74.71568122 38.4209915 -71 26 C-65.56964916 14.05322816 -55.981949 5.04503116 -44 0 C-43.34386719 -0.35835937 -42.68773437 -0.71671875 -42.01171875 -1.0859375 C-29.99126868 -6.54765656 -12.2559643 -3.17257627 0 0 Z " fill="#F9F9F9" transform="translate(1355,245)"/>
  <path d="M0 0 C1.13127319 0.01450195 1.13127319 0.01450195 2.28540039 0.02929688 C14.51938709 0.28808031 23.14107245 1.13141383 32.0625 10.25 C40.97901816 20.91422045 40.34845107 31.89945048 40.2578125 45.1953125 C40.25407517 46.81769637 40.25123161 48.44008253 40.24923706 50.06246948 C40.24165724 54.30060223 40.22205836 58.53859452 40.1998291 62.77667236 C40.17924787 67.11411642 40.17020927 71.45158352 40.16015625 75.7890625 C40.13880624 84.27611282 40.10367125 92.76302267 40.0625 101.25 C30.1625 101.25 20.2625 101.25 10.0625 101.25 C10.03671875 96.7228125 10.0109375 92.195625 9.984375 87.53125 C9.95918719 84.65098625 9.93283973 81.77082552 9.90234375 78.890625 C9.85412416 74.32616888 9.81003659 69.76195142 9.79150391 65.19726562 C9.77628019 61.5140966 9.74173545 57.83155495 9.69419098 54.14866638 C9.67943561 52.74862646 9.67146236 51.34849694 9.67061615 49.94837952 C9.6610084 42.01749467 9.52860245 35.95421729 5.0625 29.25 C0.08736454 25.18866493 -3.99283326 24.68741586 -10.34765625 24.9140625 C-13.67460322 25.34561218 -16.10603957 26.48033723 -18.9375 28.25 C-19.9275 28.58 -20.9175 28.91 -21.9375 29.25 C-23.05835312 31.5930809 -23.05835312 31.5930809 -23.9375 34.25 C-24.45163956 35.13017792 -24.45163956 35.13017792 -24.97616577 36.02813721 C-26.23563255 38.93905235 -26.21831197 41.3176641 -26.25634766 44.48730469 C-26.27621735 45.74830994 -26.29608704 47.00931519 -26.31655884 48.30853271 C-26.3284343 49.67964503 -26.34009721 51.0507592 -26.3515625 52.421875 C-26.37027869 53.82864513 -26.38985245 55.23540409 -26.4102478 56.64215088 C-26.46152761 60.33772183 -26.50117534 64.03332917 -26.53839111 67.72906494 C-26.57845692 71.50306124 -26.62943129 75.27690915 -26.6796875 79.05078125 C-26.77742685 86.45046427 -26.8569734 93.85002939 -26.9375 101.25 C-36.8375 101.25 -46.7375 101.25 -56.9375 101.25 C-56.9375 68.58 -56.9375 35.91 -56.9375 2.25 C-47.0375 2.25 -37.1375 2.25 -26.9375 2.25 C-26.6075 5.88 -26.2775 9.51 -25.9375 13.25 C-24.9784375 11.9196875 -24.9784375 11.9196875 -24 10.5625 C-20.69076662 6.56305509 -16.52829058 4.51665152 -11.9375 2.25 C-11.3496875 1.87875 -10.761875 1.5075 -10.15625 1.125 C-6.82771802 -0.1876605 -3.52428297 -0.04690185 0 0 Z " fill="#FBFBFB" transform="translate(841.9375,241.75)"/>
  <path d="M0 0 C0 0.66 0 1.32 0 2 C0.66 2.04125 1.32 2.0825 2 2.125 C6.43355031 3.41811884 9.47804539 6.08651316 13 9 C13.9075 9.721875 14.815 10.44375 15.75 11.1875 C20.17874797 16.72343496 22 22.98339341 22 30 C12.43 30 2.86 30 -7 30 C-7.99 27.69 -8.98 25.38 -10 23 C-15.51483699 18.98388729 -24.51536101 19.07621065 -31 20 C-33.81879302 21.22048 -33.81879302 21.22048 -36 23 C-36.83349951 25.95659873 -36.83349951 25.95659873 -36 29 C-31.05175928 34.08961903 -25.15176564 35.28979598 -18.375 36.4375 C-3.89000367 39.04690529 12.16264286 42.0916203 22 54 C25.9911129 60.85652729 26.04593105 69.68988852 24.54296875 77.3203125 C24.09808403 78.90141359 23.56131265 80.45639021 23 82 C22.34 82 21.68 82 21 82 C20.773125 82.721875 20.54625 83.44375 20.3125 84.1875 C18.73664872 87.56432417 16.79123384 89.55767039 14 92 C13.34 92 12.68 92 12 92 C12 92.66 12 93.32 12 94 C-0.23665298 100.39784394 -0.23665298 100.39784394 -7 100 C-7 100.66 -7 101.32 -7 102 C-11.07088917 102.10018279 -15.14128401 102.17207471 -19.21313477 102.21972656 C-20.593145 102.2396267 -21.97307337 102.2667574 -23.3527832 102.30175781 C-32.45740468 102.52664494 -39.68971423 101.78498024 -48 98 C-48.75039551 97.69868164 -49.50079102 97.39736328 -50.27392578 97.08691406 C-56.33099446 94.6356482 -60.01302882 90.02128521 -64 85 C-64.5465625 84.31421875 -65.093125 83.6284375 -65.65625 82.921875 C-69.35293745 77.63475225 -69 72.32339197 -69 66 C-59.76 66 -50.52 66 -41 66 C-39 72 -39 72 -38.1875 74.75 C-37.1618199 77.22235931 -37.1618199 77.22235931 -34.5 78.25 C-33.2625 78.62125 -33.2625 78.62125 -32 79 C-31.01 79.495 -31.01 79.495 -30 80 C-22.37262332 80.56178978 -15.91111806 80.3903598 -9 77 C-6.70424397 74.70424397 -6.67660401 73.99157475 -6.375 70.875 C-6.189375 68.956875 -6.189375 68.956875 -6 67 C-7.65 66.34 -9.3 65.68 -11 65 C-11 64.34 -11 63.68 -11 63 C-11.99644531 62.86335938 -12.99289062 62.72671875 -14.01953125 62.5859375 C-41.94983468 58.58687371 -41.94983468 58.58687371 -51 53 C-51.81984375 52.72027344 -52.6396875 52.44054687 -53.484375 52.15234375 C-56.89623421 50.58945793 -58.76965038 48.35846297 -61.25 45.5625 C-62.12140625 44.59441406 -62.9928125 43.62632812 -63.890625 42.62890625 C-68.1788404 37.28451928 -67.71857342 30.55746755 -67.28271484 23.98339844 C-66.55024717 18.84473919 -64.06528435 14.12688512 -61 10 C-58.796875 8.67578125 -58.796875 8.67578125 -57 8 C-57 7.34 -57 6.68 -57 6 C-38.98349929 -4.0308085 -19.73363389 -5.95197575 0 0 Z " fill="#F8F9F8" transform="translate(1248,244)"/>
  <path d="M0 0 C10.89 0 21.78 0 33 0 C33.99 3.3 34.98 6.6 36 10 C37.11913074 13.46241989 37.11913074 13.46241989 38.24438477 16.92285156 C40.68139031 24.42835621 42.69517777 31.82509855 44.21484375 39.578125 C45.3975588 44.73264433 47.14360338 49.64625437 48.9140625 54.625 C49.92362708 57.76263955 50.55275376 60.74007188 51 64 C51.66 64 52.32 64 53 64 C53.1858667 63.29093506 53.3717334 62.58187012 53.56323242 61.85131836 C59.87084211 37.87462638 59.87084211 37.87462638 63.66796875 26.953125 C66.72372852 18.06625659 69.28624883 8.99262641 72 0 C82.56 0 93.12 0 104 0 C100.64794007 13.4082397 100.64794007 13.4082397 98.625 17.875 C96.27661301 23.27278503 94.26941117 28.73597005 92.3203125 34.2890625 C90.90943709 38.25454071 89.43020641 42.18985332 87.9375 46.125 C85.79590747 51.78651807 83.80464593 57.47802853 81.91796875 63.23046875 C79.05301902 71.87408304 75.72655385 80.34366211 72.3737793 88.80712891 C72.08156494 89.5501123 71.78935059 90.2930957 71.48828125 91.05859375 C71.22571533 91.72173584 70.96314941 92.38487793 70.69262695 93.06811523 C69.99867616 95.00369248 69.49870579 97.00517682 69 99 C58.11 99 47.22 99 36 99 C28.54241296 81.1017911 21.86185483 62.94337536 15.875 44.5 C13.66850357 37.80442461 11.12696991 31.1404005 7.90234375 24.86328125 C7 23 7 23 6.1875 19.6875 C4.49819119 13.01917575 2.17532325 6.52596976 0 0 Z " fill="#FAFBFA" transform="translate(889,244)"/>
  <path d="M0 0 C10.89 0 21.78 0 33 0 C33.0451074 17.04574014 33.08196612 34.09142954 33.10362434 51.13721275 C33.1139469 59.05145781 33.12802586 66.96566321 33.15087891 74.87988281 C33.17078289 81.77609076 33.18370931 88.67227001 33.18817699 95.56850588 C33.19078946 99.22166473 33.19695007 102.87474142 33.21146011 106.52787399 C33.2275084 110.60113962 33.22798162 114.67426148 33.22705078 118.74755859 C33.23424133 119.96531479 33.24143188 121.18307098 33.24884033 122.43772888 C33.246091 123.54273239 33.24334167 124.6477359 33.24050903 125.78622437 C33.24235262 126.75041983 33.24419621 127.71461529 33.24609566 128.70802879 C33 131 33 131 31 133 C21.93167279 132.37901716 11.59246042 120.77560741 5.98974609 114.37646484 C-6.93100858 98.30670207 -2.82525473 73.74855138 -1.85394287 54.4720459 C-1.57410067 48.31921176 -1.45367924 42.16326656 -1.31835938 36.00585938 C-1.03160035 23.99455049 -0.55833203 12.00175263 0 0 Z " fill="#07BFED" transform="translate(415,177)"/>
  <path d="M0 0 C0 9.24 0 18.48 0 28 C-7.59 28.33 -15.18 28.66 -23 29 C-23 29.66 -23 30.32 -23 31 C-23.9075 31.598125 -24.815 32.19625 -25.75 32.8125 C-30.5441691 36.03934459 -33.07763908 39.15512539 -34.58953857 44.76443481 C-35.48122791 49.62099258 -35.36439729 54.57285147 -35.4140625 59.49609375 C-35.43342865 60.68477554 -35.4527948 61.87345734 -35.4727478 63.09815979 C-35.53231089 66.8778679 -35.5788363 70.65760684 -35.625 74.4375 C-35.66320114 77.00717441 -35.70225411 79.5768363 -35.7421875 82.14648438 C-35.83958919 88.43092281 -35.91934446 94.71523524 -36 101 C-45.9 101 -55.8 101 -66 101 C-66 68.33 -66 35.66 -66 2 C-56.43 2 -46.86 2 -37 2 C-37 7.61 -37 13.22 -37 19 C-36.34 19 -35.68 19 -35 19 C-34.90203125 18.25878906 -34.8040625 17.51757812 -34.703125 16.75390625 C-33.16489234 10.72916165 -27.09063005 5.30890953 -22 2 C-14.57694213 -0.56916712 -7.79279353 -0.13792555 0 0 Z " fill="#FAFAFB" transform="translate(1175,242)"/>
  <path d="M0 0 C9.9 0 19.8 0 30 0 C30 32.67 30 65.34 30 99 C20.1 99 10.2 99 0 99 C0 66.33 0 33.66 0 0 Z " fill="#FBFBFB" transform="translate(737,244)"/>
  <path d="M0 0 C11.22 0 22.44 0 34 0 C34.16115049 6.69158216 34.30034261 13.37637902 34.38452148 20.06835938 C34.41962297 22.34202948 34.46731746 24.61554271 34.52807617 26.88867188 C34.61344687 30.16575893 34.65279243 33.44075 34.68359375 36.71875 C34.71972275 37.72740112 34.75585175 38.73605225 34.79307556 39.77526855 C34.79606595 45.20718293 34.27080246 48.31996567 30.63330078 52.47705078 C29.42821585 53.65753931 28.21737749 54.83219227 27 56 C26.03775627 57.19768403 25.09476371 58.41145353 24.18359375 59.6484375 C23.73604736 60.25300781 23.28850098 60.85757813 22.82739258 61.48046875 C22.36872803 62.10566406 21.91006348 62.73085938 21.4375 63.375 C16.79183941 69.63251266 12.0839891 75.83782256 7.3125 82 C6.39392212 83.19375244 6.39392212 83.19375244 5.45678711 84.41162109 C4.88968018 85.14203613 4.32257324 85.87245117 3.73828125 86.625 C2.98091675 87.60339844 2.98091675 87.60339844 2.20825195 88.6015625 C1.61016724 89.29378906 1.61016724 89.29378906 1 90 C0.67 90 0.34 90 0 90 C0 60.3 0 30.6 0 0 Z " fill="#F5D071" transform="translate(327,228)"/>
  <path d="M0 0 C11.22 0 22.44 0 34 0 C34 23.1 34 46.2 34 70 C29.71159119 66.32422102 25.77474532 62.87506031 21.875 58.875 C18.74508959 55.66509188 15.6605226 52.60437182 12 50 C11.01 50 10.02 50 9 50 C6.89307481 52.22437373 6.89307481 52.22437373 4.875 55 C3.60089905 56.68013312 2.31363494 58.3505929 1 60 C0.67 60 0.34 60 0 60 C0 40.2 0 20.4 0 0 Z " fill="#F5D171" transform="translate(371,201)"/>
  <path d="M0 0 C10.56 0 21.12 0 32 0 C32 8.58 32 17.16 32 26 C21.44 26 10.88 26 0 26 C0 17.42 0 8.84 0 0 Z " fill="#FDFDFD" transform="translate(736,206)"/>
  <path d="M0 0 C5.45571276 3.01116491 8.66514887 6.08657212 10.9453125 11.890625 C10.9453125 13.870625 10.9453125 15.850625 10.9453125 17.890625 C-2.9146875 17.890625 -16.7746875 17.890625 -31.0546875 17.890625 C-31.0546875 10.75555088 -29.63787393 8.89513574 -25.0546875 3.890625 C-24.58289062 3.35566406 -24.11109375 2.82070313 -23.625 2.26953125 C-17.46485142 -3.3639725 -7.39451539 -2.68547618 0 0 Z " fill="#313131" transform="translate(1055.0546875,265.109375)"/>
  <path d="M0 0 C1.9375 1.5625 1.9375 1.5625 3 3 C3 3.99 3 4.98 3 6 C3.66 6 4.32 6 5 6 C5.495 9.96 5.495 9.96 6 14 C-7.53 14 -21.06 14 -35 14 C-35 7.44087381 -34.11783368 4.84026064 -30 0 C-21.07804967 -7.0928489 -8.99668922 -6.37265486 0 0 Z " fill="#2D2D2D" transform="translate(1347,269)"/>
  <path d="M0 0 C11.88 0 23.76 0 36 0 C36 36.63 36 73.26 36 111 C36.99 111.495 36.99 111.495 38 112 C36.02 112.99 36.02 112.99 34 114 C34 76.71 34 39.42 34 1 C23.11 1 12.22 1 1 1 C1 49.51 1 98.02 1 148 C0.67 148 0.34 148 0 148 C0 99.16 0 50.32 0 0 Z " fill="#48632D" transform="translate(457,150)"/>
  <path d="M0 0 C9.9 0 19.8 0 30 0 C30 0.33 30 0.66 30 1 C20.43 1 10.86 1 1 1 C1 33.67 1 66.34 1 100 C10.9 100 20.8 100 31 100 C30.94779297 94.29203125 30.94779297 94.29203125 30.89453125 88.46875 C30.87111087 84.76856231 30.85290835 81.068383 30.83520508 77.36816406 C30.82015221 74.80367312 30.79970539 72.23920777 30.77368164 69.67480469 C30.73714533 65.98105537 30.72023806 62.28764754 30.70703125 58.59375 C30.69154739 57.4538562 30.67606354 56.3139624 30.66011047 55.13952637 C30.65875959 48.69778141 31.1921536 43.83328917 34 38 C34.66 37.34 35.32 36.68 36 36 C35.24487877 42.54438396 35.24487877 42.54438396 33.98086548 44.8961792 C32.75709772 47.5209918 32.72169123 49.51935891 32.68115234 52.41113281 C32.66128265 53.49195129 32.64141296 54.57276978 32.62094116 55.68634033 C32.60361435 57.42714874 32.60361435 57.42714874 32.5859375 59.203125 C32.56657135 60.39605164 32.5472052 61.58897827 32.5272522 62.8180542 C32.46746733 66.62863004 32.42107473 70.4392361 32.375 74.25 C32.33681928 76.83334652 32.2977675 79.41668032 32.2578125 82 C32.16012714 88.33326722 32.08054781 94.66639875 32 101 C21.44 101 10.88 101 0 101 C0 67.67 0 34.34 0 0 Z " fill="#858484" transform="translate(1108,243)"/>
  <path d="M0 0 C0.66 0 1.32 0 2 0 C2 34.32 2 68.64 2 104 C0.02 102.35 -1.96 100.7 -4 99 C-3.51322375 98.58760921 -3.02644751 98.17521841 -2.52492046 97.75033092 C-0.68638994 95.64003277 -0.6192928 94.75179818 -0.60127258 91.9947052 C-0.58873444 91.18282242 -0.57619629 90.37093964 -0.5632782 89.53445435 C-0.56471329 88.64756927 -0.56614838 87.7606842 -0.56762695 86.84692383 C-0.5574353 85.91014297 -0.54724365 84.97336212 -0.53674316 84.00819397 C-0.50651724 80.90774632 -0.49733251 77.80760712 -0.48828125 74.70703125 C-0.47144169 72.55896469 -0.45329244 70.41090804 -0.43388367 68.26286316 C-0.38629909 62.60595797 -0.3565444 56.9490929 -0.33044434 51.29205322 C-0.30068148 45.5207934 -0.25413651 39.74967194 -0.20898438 33.97851562 C-0.12285501 22.652416 -0.05555258 11.32628797 0 0 Z " fill="#1D4F60" transform="translate(413,177)"/>
  <path d="M0 0 C10.56 0 21.12 0 32 0 C32 8.58 32 17.16 32 26 C21.44 26 10.88 26 0 26 C0 17.42 0 8.84 0 0 Z M2 1 C2 8.59 2 16.18 2 24 C11.57 24 21.14 24 31 24 C31 16.41 31 8.82 31 1 C21.43 1 11.86 1 2 1 Z " fill="#BCBCBB" transform="translate(736,206)"/>
  <path d="M0 0 C0.33 0 0.66 0 1 0 C1 41.25 1 82.5 1 125 C2.32 125.33 3.64 125.66 5 126 C2.525 127.98 2.525 127.98 0 130 C0 87.1 0 44.2 0 0 Z " fill="#293841" transform="translate(448,177)"/>
  <path d="M0 0 C0.625 1.75 0.625 1.75 1 4 C0.34 5.32 -0.32 6.64 -1 8 C11.87 8 24.74 8 38 8 C37.505 5.03 37.505 5.03 37 2 C39 4 39 4 39 10 C25.14 10 11.28 10 -3 10 C-3 3.25 -3 3.25 0 0 Z " fill="#747574" transform="translate(1027,273)"/>
  <path d="M0 0 C0 3 0 3 -1.44262695 4.8033905 C-2.45522583 5.80599663 -2.45522583 5.80599663 -3.48828125 6.82885742 C-4.62946411 7.96970039 -4.62946411 7.96970039 -5.79370117 9.1335907 C-6.62490479 9.94931046 -7.4561084 10.76503021 -8.3125 11.60546875 C-9.15594971 12.44467361 -9.99939941 13.28387848 -10.8684082 14.14851379 C-13.57200158 16.8352738 -16.28582468 19.51143435 -19 22.1875 C-20.8314109 24.00387017 -22.66214909 25.8209189 -24.4921875 27.63867188 C-28.98700658 32.1003598 -33.49027501 36.55338177 -38 41 C-38.99 40.67 -39.98 40.34 -41 40 C-39.38113585 38.32737283 -37.7547271 36.66204463 -36.125 35 C-35.22007812 34.071875 -34.31515625 33.14375 -33.3828125 32.1875 C-31 30 -31 30 -29 30 C-29 29.34 -29 28.68 -29 28 C-28.34 28 -27.68 28 -27 28 C-27 27.34 -27 26.68 -27 26 C-26.34 26 -25.68 26 -25 26 C-24.74114014 25.41065674 -24.48228027 24.82131348 -24.21557617 24.21411133 C-22.90760228 21.83170217 -21.55030677 20.40356075 -19.55078125 18.57421875 C-18.86693359 17.94193359 -18.18308594 17.30964844 -17.47851562 16.65820312 C-16.76373047 16.00787109 -16.04894531 15.35753906 -15.3125 14.6875 C-13.91167415 13.4009213 -12.51192715 12.11316694 -11.11328125 10.82421875 C-10.43088379 10.19563965 -9.74848633 9.56706055 -9.04541016 8.91943359 C-5.95575127 6.02006642 -2.96929265 3.02195006 0 0 Z " fill="#3D4C2A" transform="translate(500,282)"/>
  <path d="M0 0 C23.76 0 47.52 0 72 0 C72 0.33 72 0.66 72 1 C49.56 1.33 27.12 1.66 4 2 C3.34 3.65 2.68 5.3 2 7 C2.66 7.33 3.32 7.66 4 8 C3.34 8.66 2.68 9.32 2 10 C0.68373308 6.38026598 0 3.90432869 0 0 Z " fill="#3F3F40" transform="translate(1024,302)"/>
  <path d="M0 0 C0.33 0 0.66 0 1 0 C0.24487877 6.54438396 0.24487877 6.54438396 -1.01913452 8.8961792 C-2.24290228 11.5209918 -2.27830877 13.51935891 -2.31884766 16.41113281 C-2.33871735 17.49195129 -2.35858704 18.57276978 -2.37905884 19.68634033 C-2.39061005 20.84687927 -2.40216125 22.00741821 -2.4140625 23.203125 C-2.43342865 24.39605164 -2.4527948 25.58897827 -2.4727478 26.8180542 C-2.53253267 30.62863004 -2.57892527 34.4392361 -2.625 38.25 C-2.66318072 40.83334652 -2.7022325 43.41668032 -2.7421875 46 C-2.83823344 52.33322046 -2.92328436 58.66651749 -3 65 C-3.33 65 -3.66 65 -4 65 C-4.07627947 57.31370424 -4.12869635 49.6275067 -4.16479492 41.94091797 C-4.17984933 39.32792513 -4.2002973 36.71495742 -4.22631836 34.10205078 C-4.26284778 30.33880395 -4.2797604 26.57589225 -4.29296875 22.8125 C-4.30845261 21.65073242 -4.32393646 20.48896484 -4.33988953 19.29199219 C-4.3414201 11.85816036 -3.33342667 6.66685334 0 0 Z " fill="#6F6F6F" transform="translate(1143,279)"/>
  <path d="M0 0 C0.66 0.33 1.32 0.66 2 1 C1.53851563 1.48726563 1.07703125 1.97453125 0.6015625 2.4765625 C-5.59270138 9.20945802 -10.79381252 16.50010287 -16 24 C-16.33 23.01 -16.66 22.02 -17 21 C-16.67 20.67 -16.34 20.34 -16 20 C-16.66 19.34 -17.32 18.68 -18 18 C-12.06 12.06 -6.12 6.12 0 0 Z " fill="#07A8D0" transform="translate(509,291)"/>
  <path d="M0 0 C0.66 0 1.32 0 2 0 C2 0.66 2 1.32 2 2 C2.66 2.33 3.32 2.66 4 3 C1.71643754 5.34138543 -0.57813374 7.67166982 -2.875 10 C-3.85146484 11.00160156 -3.85146484 11.00160156 -4.84765625 12.0234375 C-5.47285156 12.65507812 -6.09804688 13.28671875 -6.7421875 13.9375 C-7.3182373 14.52402344 -7.89428711 15.11054688 -8.48779297 15.71484375 C-10 17 -10 17 -12 17 C-10.32844203 13.22757683 -7.92645254 10.07212347 -5.4375 6.8125 C-5.02564453 6.26658203 -4.61378906 5.72066406 -4.18945312 5.15820312 C-1.16952328 1.16952328 -1.16952328 1.16952328 0 0 Z " fill="#7DD026" transform="translate(325,322)"/>
  <path d="M0 0 C0.58265625 0.22558594 1.1653125 0.45117188 1.765625 0.68359375 C1.16924167 1.95809822 0.56315084 3.22806252 -0.046875 4.49609375 C-0.55154297 5.55763672 -0.55154297 5.55763672 -1.06640625 6.640625 C-2.25876363 8.72625346 -3.37133374 10.16987273 -5.234375 11.68359375 C-7.421875 11.37109375 -7.421875 11.37109375 -9.234375 10.68359375 C-8.574375 9.36359375 -7.914375 8.04359375 -7.234375 6.68359375 C-7.894375 6.35359375 -8.554375 6.02359375 -9.234375 5.68359375 C-8.16544282 4.64769037 -7.07859012 3.63025433 -5.984375 2.62109375 C-5.38109375 2.05261719 -4.7778125 1.48414063 -4.15625 0.8984375 C-2.234375 -0.31640625 -2.234375 -0.31640625 0 0 Z " fill="#06B8E4" transform="translate(492.234375,310.31640625)"/>
  <path d="M0 0 C2 1 2 1 2 1 Z M-4 2 C-3.01 2.33 -2.02 2.66 -1 3 C-6.61 8.61 -12.22 14.22 -18 20 C-18.33 19.01 -18.66 18.02 -19 17 C-14.05 12.05 -9.1 7.1 -4 2 Z " fill="#1F363D" transform="translate(380,322)"/>
  <path d="M0 0 C0 3 0 3 -1.44946289 4.8059082 C-2.1171167 5.46421631 -2.78477051 6.12252441 -3.47265625 6.80078125 C-4.20806641 7.53103516 -4.94347656 8.26128906 -5.70117188 9.01367188 C-6.48041016 9.77228516 -7.25964844 10.53089844 -8.0625 11.3125 C-8.81466797 12.05951172 -9.56683594 12.80652344 -10.34179688 13.57617188 C-14.74350383 17.9169028 -19.25576694 22.03702178 -24 26 C-24.66 25.67 -25.32 25.34 -26 25 C-22.15864087 21.06669344 -18.30550674 17.19975984 -14.125 13.625 C-9.15078153 9.35430645 -4.59056416 4.67522621 0 0 Z " fill="#04A9D1" transform="translate(356,317)"/>
  <path d="M0 0 C7.59 0 15.18 0 23 0 C23 0.33 23 0.66 23 1 C13.595 1.495 13.595 1.495 4 2 C3.34 3.65 2.68 5.3 2 7 C2.66 7.33 3.32 7.66 4 8 C3.34 8.66 2.68 9.32 2 10 C0.68373308 6.38026598 0 3.90432869 0 0 Z " fill="#515152" transform="translate(1024,302)"/>
  <path d="M0 0 C1.703125 0.96484375 1.703125 0.96484375 2.703125 2.96484375 C1.5584375 3.18140625 1.5584375 3.18140625 0.390625 3.40234375 C-2.37860408 3.92810315 -2.37860408 3.92810315 -5.296875 4.96484375 C-5.99838652 6.28017785 -6.66213425 7.61601967 -7.296875 8.96484375 C-8.921875 10.71484375 -8.921875 10.71484375 -10.296875 11.96484375 C-11.286875 11.63484375 -12.276875 11.30484375 -13.296875 10.96484375 C-11.56149377 9.09482087 -9.8109415 7.24496283 -8.046875 5.40234375 C-7.31017578 4.60280273 -7.31017578 4.60280273 -6.55859375 3.78710938 C-2.85141299 -0.04364408 -2.85141299 -0.04364408 0 0 Z " fill="#05A2C9" transform="translate(382.296875,293.03515625)"/>
  <path d="M0 0 C0.33 0 0.66 0 1 0 C1 7.92 1 15.84 1 24 C2.32 24.33 3.64 24.66 5 25 C3.35 26.32 1.7 27.64 0 29 C0 19.43 0 9.86 0 0 Z " fill="#313936" transform="translate(448,278)"/>
  <path d="M0 0 C0.66 0.33 1.32 0.66 2 1 C1.46890625 1.59167969 0.9378125 2.18335938 0.390625 2.79296875 C-3.17814063 6.78503688 -6.72010228 10.76346545 -10 15 C-10.83984375 13.359375 -10.83984375 13.359375 -11 11 C-9.24163592 8.8697315 -7.57575206 7.1050158 -5.5625 5.25 C-5.03333984 4.74339844 -4.50417969 4.23679687 -3.95898438 3.71484375 C-2.65022899 2.46504131 -1.32648041 1.23097382 0 0 Z " fill="#0A90B0" transform="translate(509,291)"/>
  <path d="M0 0 C0.33 0 0.66 0 1 0 C1.06058594 1.22976563 1.12117187 2.45953125 1.18359375 3.7265625 C1.26805005 5.35938427 1.35269547 6.99219627 1.4375 8.625 C1.47681641 9.43324219 1.51613281 10.24148438 1.55664062 11.07421875 C1.78796082 15.45150865 2.16920917 19.68547281 3 24 C0.65696882 21.80681384 -0.88460638 20.07120568 -1.23632812 16.80615234 C-1.16910967 14.25032323 -0.98916908 11.73294233 -0.75 9.1875 C-0.68425781 8.30384766 -0.61851562 7.42019531 -0.55078125 6.50976562 C-0.3864541 4.33829972 -0.19581403 2.16885326 0 0 Z " fill="#575656" transform="translate(993,287)"/>
  <path d="M0 0 C0.66 0.33 1.32 0.66 2 1 C-2.29 5.29 -6.58 9.58 -11 14 C-11.99 13.67 -12.98 13.34 -14 13 C-13.15695312 12.22914063 -12.31390625 11.45828125 -11.4453125 10.6640625 C-10.33851968 9.65106568 -9.23175006 8.63804353 -8.125 7.625 C-7.56941406 7.11710937 -7.01382812 6.60921875 -6.44140625 6.0859375 C-4.25988219 4.0883974 -2.09183907 2.09183907 0 0 Z " fill="#394C26" transform="translate(341,313)"/>
  <path d="M0 0 C1.25127906 3.54667178 0.72285053 5.72253438 -0.4375 9.25 C-0.72496094 10.14203125 -1.01242187 11.0340625 -1.30859375 11.953125 C-1.53675781 12.62859375 -1.76492188 13.3040625 -2 14 C-3.32 14 -4.64 14 -6 14 C-5.67 12.68 -5.34 11.36 -5 10 C-5 10.99 -5 11.98 -5 13 C-4.34 13 -3.68 13 -3 13 C-3.05220703 12.09507812 -3.05220703 12.09507812 -3.10546875 11.171875 C-3.32933105 4.5626072 -3.32933105 4.5626072 -1.5 1.4375 C-0.7575 0.7259375 -0.7575 0.7259375 0 0 Z " fill="#777777" transform="translate(945,294)"/>
  <path d="M0 0 C2.51083114 1.25541557 2.87125446 2.50063488 4 5 C4.66 5 5.32 5 6 5 C5.67 7.31 5.34 9.62 5 12 C4.34 12 3.68 12 3 12 C2.49440092 10.56445975 1.9957251 9.1264798 1.5 7.6875 C1.2215625 6.88699219 0.943125 6.08648437 0.65625 5.26171875 C0 3 0 3 0 0 Z " fill="#3D3D3E" transform="translate(937,295)"/>
  <path d="M0 0 C2 3.75 2 3.75 2 6 C1.01 6.495 1.01 6.495 0 7 C-1.12706706 9.11015954 -1.12706706 9.11015954 -2.125 11.5625 C-2.47820313 12.38878906 -2.83140625 13.21507812 -3.1953125 14.06640625 C-3.59363281 15.02353516 -3.59363281 15.02353516 -4 16 C-5.35304209 11.94087374 -4.15216503 10.22850409 -2.5625 6.3125 C-2.08941406 5.13300781 -1.61632812 3.95351563 -1.12890625 2.73828125 C-0.75636719 1.83464844 -0.38382813 0.93101562 0 0 Z " fill="#747373" transform="translate(988,257)"/>
  <path d="M0 0 C0 3 0 3 -2.3125 5.6875 C-5 8 -5 8 -8 8 C-7.8125 6.125 -7.8125 6.125 -7 4 C-4.5625 2.875 -4.5625 2.875 -2 2 C-1.34 1.34 -0.68 0.68 0 0 Z " fill="#31421F" transform="translate(318,335)"/>
  <path d="M0 0 C1.23912545 3.57969574 0.95063395 6.35590321 0 10 C-0.99 10.66 -1.98 11.32 -3 12 C-2.49202991 7.6822542 -1.80317221 3.96697886 0 0 Z " fill="#646464" transform="translate(976,290)"/>
  <path d="M0 0 C2 1 2 1 2.8515625 3.50390625 C3.10679687 4.51324219 3.36203125 5.52257812 3.625 6.5625 C3.88539063 7.57441406 4.14578125 8.58632813 4.4140625 9.62890625 C4.60742188 10.41136719 4.80078125 11.19382812 5 12 C3 11 3 11 2 8 C0.50014391 6.33289654 0.50014391 6.33289654 -1 5 C-0.34 4.67 0.32 4.34 1 4 C0.67 2.68 0.34 1.36 0 0 Z " fill="#6E6E6E" transform="translate(902,282)"/>
  <path d="M0 0 C0 2.97 0 5.94 0 9 C-1.65 7.35 -3.3 5.7 -5 4 C-1.125 0 -1.125 0 0 0 Z " fill="#2E3124" transform="translate(414,271)"/>
  <path d="M0 0 C1.66611905 -0.042721 3.33382885 -0.04063832 5 0 C5.33 0.33 5.66 0.66 6 1 C7.68183948 1.23287008 9.3712416 1.41264166 11.0625 1.5625 C11.98160156 1.64628906 12.90070313 1.73007812 13.84765625 1.81640625 C14.91306641 1.90728516 14.91306641 1.90728516 16 2 C16 2.33 16 2.66 16 3 C14.08404032 3.08133791 12.16708068 3.13934367 10.25 3.1875 C8.64898438 3.23970703 8.64898438 3.23970703 7.015625 3.29296875 C3.69972145 2.97082786 2.40983327 2.22851086 0 0 Z " fill="#7C7B7B" transform="translate(1035,320)"/>
  <path d="M0 0 C0.66 0 1.32 0 2 0 C0.4169423 4.2742558 -2.50568404 6.26531794 -6 9 C-4.52307692 4.32307692 -4.52307692 4.32307692 -1.875 2.6875 C-1.25625 2.460625 -0.6375 2.23375 0 2 C0 1.34 0 0.68 0 0 Z " fill="#CACACA" transform="translate(1191,250)"/>
  <path d="M0 0 C0.33 0 0.66 0 1 0 C0.56179109 4.55737263 0.14958831 7.57653445 -3 11 C-2.25 3.375 -2.25 3.375 0 0 Z " fill="#505051" transform="translate(1143,279)"/>
  <path d="M0 0 C0.99 0.33 1.98 0.66 3 1 C1.35 2.65 -0.3 4.3 -2 6 C-2.99 5.67 -3.98 5.34 -5 5 C-3.35 3.35 -1.7 1.7 0 0 Z " fill="#04B1D9" transform="translate(374,299)"/>
  <path d="M0 0 C0.33 0.99 0.66 1.98 1 3 C0.01 3.33 -0.98 3.66 -2 4 C-3.20882096 6.00016466 -3.20882096 6.00016466 -4 8 C-4.66 7.67 -5.32 7.34 -6 7 C-4.02 4.69 -2.04 2.38 0 0 Z " fill="#71B82F" transform="translate(504,251)"/>
  <path d="M0 0 C0.33 0 0.66 0 1 0 C1 2.64 1 5.28 1 8 C1.99 8.33 2.98 8.66 4 9 C2.68 9.99 1.36 10.98 0 12 C0 8.04 0 4.08 0 0 Z " fill="#403F3F" transform="translate(815,244)"/>
</svg>
